<svg id="Capa_1" data-name="Capa 1" xmlns="http://www.w3.org/2000/svg" viewBox="0 0 168.91 43.83"><defs><style>.cls-1{fill:#aac816;}.cls-2{fill:#8e3089;stroke:#662681;}.cls-2,.cls-3,.cls-4,.cls-5{stroke-miterlimit:10;}.cls-3{fill:#e94d30;stroke:#e5605e;stroke-width:0.5px;}.cls-4{fill:#ffd940;stroke:#ffd940;}.cls-5{fill:#2a90cf;stroke:#2a90cf;}.cls-6{fill:#e52621;}.cls-7{fill:none;}.cls-8{fill:#0c0c0c;}</style></defs><rect class="cls-1" x="252.44" y="410.81" width="4.95" height="29.44" transform="matrix(1, 0, 0, 1, -213.86, -398.38)"/><path class="cls-1" d="M269.27,419.23c0-4.67-5-8.45-11.12-8.43l.05,16.93C264.32,427.71,269.28,423.91,269.27,419.23Z" transform="translate(-212.78 -399.03)"/><polygon class="cls-1" points="53.08 27.4 49.15 29.38 55.68 41.18 59.6 39.2 53.08 27.4"/><polygon class="cls-2" points="131.07 20.81 123.85 10.98 121.23 38.25 124.56 39.52 125.69 20.22 131.12 26.57 136.11 20.87 138.33 39.57 142.62 37.98 137.84 10.12 131.07 20.81"/><path class="cls-3" d="M241.25,399.64l-.54,36.65-13.3-34.66L213.1,440.31l5.71,2.22,3.28-11.5,10.45-.24,4,11.11,9.94,0,.62-38.15,134.32-.69v-3.81Zm-18.41,25.27,4.81-11.34,4.87,11.31Z" transform="translate(-212.78 -399.03)"/><polygon class="cls-4" points="92.5 12.2 69.02 12.26 69.03 17.37 78.27 17.44 78.62 40.57 83.34 40.55 83.08 17.28 92.32 17.12 92.5 12.2"/><path class="cls-5" d="M331.43,410.33l-22.09-.19,0,5.73L315,416a51.18,51.18,0,0,1-3.91,13.45,46.68,46.68,0,0,1-4.76,8.26l4.83.76a51.09,51.09,0,0,0,3.91-8.73,54.69,54.69,0,0,0,2.73-13.48l3.37-.29a80.74,80.74,0,0,0,4,20.15c.48,1.44.59,1.8,1.13,3.11,2.52-.27,5.91-.51,5.91-.51,0-.21-.21-.38-.31-.46-.82-.67-1.51-2.22-2.89-5.33-1-2.12-2.94-8.44-3.58-17.29l6-.67Z" transform="translate(-212.78 -399.03)"/><path class="cls-6" d="M276.32,429.22a23,23,0,0,1,.63-12.33c-1.39.18-2.33-.14-3.72,0-1.21,4.35-2.68,12.62,1.67,20.24a21.36,21.36,0,0,0,1.65,2.48l4.18-.55A24.16,24.16,0,0,1,276.32,429.22Z" transform="translate(-212.78 -399.03)"/><ellipse class="cls-6" cx="275.64" cy="412.5" rx="2.76" ry="2.61" transform="translate(-213.7 -398.42) rotate(-0.13)"/><path class="cls-7" d="M373.1,421.41c-.46-5.13-3.08-9.06-6.24-9.05s-5.76,3.95-6.19,9.08Z" transform="translate(-212.78 -399.03)"/><path class="cls-7" d="M360.77,425.39c.65,4.71,3.16,8.22,6.14,8.21s5.48-3.53,6.11-8.25Z" transform="translate(-212.78 -399.03)"/><path class="cls-8" d="M366.44,407.4c-5.56,0-10,7-10,15.61s4.54,15.57,10.1,15.55,10-7,10-15.6S372,407.39,366.44,407.4Zm.42,5c3.16,0,5.78,3.92,6.24,9.05l-12.43,0C361.1,416.31,363.7,412.37,366.86,412.36Zm.05,21.24c-3,0-5.49-3.5-6.14-8.21l12.25,0C372.39,430.07,369.9,433.59,366.91,433.6Z" transform="translate(-212.78 -399.03)"/></svg>