<svg id="Capa_1" data-name="Capa 1" xmlns="http://www.w3.org/2000/svg" viewBox="0 0 202.8 229.72"><defs><style>.cls-1,.cls-14,.cls-3,.cls-5{fill:none;}.cls-1{stroke:#1d1d1b;}.cls-1,.cls-10,.cls-11,.cls-12,.cls-3,.cls-4,.cls-5,.cls-7,.cls-9{stroke-miterlimit:10;}.cls-2,.cls-4{fill:#27bad7;}.cls-3{stroke:#2791d0;}.cls-4,.cls-5,.cls-7{stroke:#fff;}.cls-5{stroke-width:2px;}.cls-6,.cls-7{fill:#f5edce;}.cls-7{stroke-width:0.1px;}.cls-8{fill:#aac816;}.cls-9{fill:#8e3089;stroke:#662681;}.cls-10{fill:#e94d30;stroke:#e5605e;stroke-width:0.5px;}.cls-11{fill:#ffd940;stroke:#ffd940;}.cls-12{fill:#2a90cf;stroke:#2a90cf;}.cls-13{fill:#e52621;}.cls-15{fill:#0c0c0c;}</style></defs><path class="cls-1" d="M451.55,821.18" transform="translate(-258.89 -686.07)"/><path class="cls-2" d="M327.43,708.11a2.49,2.49,0,1,0-3.54,3.49l4.93,4.54L324.39,721a2.65,2.65,0,0,0,3.77,3.72l4.48-4.85,5,5a3,3,0,0,0,2.57-.09A2.94,2.94,0,0,0,341,721l-5-4.76,4.2-4.51a2.77,2.77,0,0,0,.62-3.58,2.9,2.9,0,0,0-4.3,0l-4.1,4.34Z" transform="translate(-258.89 -686.07)"/><path class="cls-1" d="M375.52,694.88" transform="translate(-258.89 -686.07)"/><path class="cls-2" d="M374.05,686.31l-21.74-.24-.05,5.54,5.63.1a48.77,48.77,0,0,1-3.88,13,45.18,45.18,0,0,1-4.71,8l4.76.75a48.64,48.64,0,0,0,3.86-8.43,52.18,52.18,0,0,0,2.72-13l3.32-.27a77,77,0,0,0,3.89,19.49c.48,1.4.59,1.74,1.11,3,2.48-.26,5.82-.48,5.82-.48,0-.21-.21-.37-.31-.45-.8-.65-1.47-2.15-2.83-5.16-.93-2-2.87-8.17-3.48-16.73l5.93-.63Z" transform="translate(-258.89 -686.07)"/><path class="cls-3" d="M397.45,818.43" transform="translate(-258.89 -686.07)"/><ellipse class="cls-2" cx="129.72" cy="23.11" rx="3.03" ry="3.14"/><ellipse class="cls-2" cx="137.7" cy="36.4" rx="3.03" ry="3.14"/><path class="cls-2" d="M404.06,707.57c-.58-1.33-3.82-.6-7.1,1.75l-12.9,9.34c-2.86,2.51-4,5-2.86,5.75.92.6,3.21,0,5.73-1.51l12.9-9.34C402.78,711.4,404.58,708.77,404.06,707.57Z" transform="translate(-258.89 -686.07)"/><path class="cls-4" d="M308.52,840.61q2.5-.27,5-.3a49.79,49.79,0,0,1,7.66.56,70,70,0,0,1,42.63,20.78l0,0,.06,0c2.26-2.83,16.14-21.52,41.87-22.83a43.94,43.94,0,0,1,13.45.62c22.9,3.09,34,15.75,39.29,21.42a1.14,1.14,0,0,0,2-.79l-.84-116.45a1.1,1.1,0,0,0-.42-.86A72.22,72.22,0,0,0,412,727.59a70.32,70.32,0,0,0-48.08,21.62,1.12,1.12,0,0,1-1.66,0c-4-4.39-22-20.87-51.7-22.44-29.36-1.55-47.8,20-50.84,23.43a1.14,1.14,0,0,0-.28.75V862.62a1.13,1.13,0,0,0,1.8.9h0l.18-.17A70.19,70.19,0,0,1,308.52,840.61Z" transform="translate(-258.89 -686.07)"/><path class="cls-4" d="M422.54,839.46c-1.21-.35-2.41-.65-3.6-.89a81.14,81.14,0,0,0-10.7-.7c-.93,0-1.85,0-2.75.08-22,2.35-38.66,20.14-41.88,22.83l-.06.07-.05-.05C358,857.57,341.2,843,320.87,840a70,70,0,0,0-7.66-.43c-1.72,0-3.39.06-5,.17-21.44,2.3-40.06,17.47-47.29,22.87l94.29.23a.81.81,0,0,1,.44,1.48h0c-.58.54-.18,1.67.44,1.48h15.48l-1-2a1,1,0,0,1,.87-1.62l88.87-.24h0C454.71,857.73,445.85,846.3,422.54,839.46Z" transform="translate(-258.89 -686.07)"/><line class="cls-5" x1="3.59" y1="72.14" x2="21.74" y2="57.88"/><line class="cls-5" x1="3.76" y1="83.4" x2="21.63" y2="69.39"/><line class="cls-5" x1="3.8" y1="95.58" x2="21.61" y2="81.61"/><line class="cls-5" x1="3.86" y1="107.85" x2="21.44" y2="93.75"/><line class="cls-5" x1="3.94" y1="120.86" x2="21.39" y2="106.37"/><line class="cls-5" x1="3.94" y1="134.02" x2="21.31" y2="120.4"/><path class="cls-5" d="M383.06,824.8" transform="translate(-258.89 -686.07)"/><path class="cls-5" d="M366.27,837.87" transform="translate(-258.89 -686.07)"/><path class="cls-5" d="M383.35,833.13" transform="translate(-258.89 -686.07)"/><path class="cls-5" d="M366.34,846.37" transform="translate(-258.89 -686.07)"/><path class="cls-5" d="M381.73,752" transform="translate(-258.89 -686.07)"/><path class="cls-5" d="M364.56,764.37" transform="translate(-258.89 -686.07)"/><line class="cls-5" x1="104.25" y1="90.94" x2="121.77" y2="78.3"/><path class="cls-5" d="M381.59,781.29" transform="translate(-258.89 -686.07)"/><path class="cls-5" d="M364.81,793.89" transform="translate(-258.89 -686.07)"/><path class="cls-5" d="M381.49,795.72" transform="translate(-258.89 -686.07)"/><path class="cls-5" d="M363.62,809.73" transform="translate(-258.89 -686.07)"/><path class="cls-5" d="M382.74,810.76" transform="translate(-258.89 -686.07)"/><path class="cls-5" d="M364.93,824.73" transform="translate(-258.89 -686.07)"/><path class="cls-6" d="M424.49,761.87l3.64-4a2.53,2.53,0,0,0,.55-3.2,2.48,2.48,0,0,0-3.75,0q-1.77,1.95-3.56,3.89l-4.27-3.94a2.38,2.38,0,0,0-3.49.45,2.54,2.54,0,0,0,.42,2.67l4.28,4.07-3.84,4.34a2.4,2.4,0,0,0,0,3.15,2.26,2.26,0,0,0,3.3.18l3.9-4.34,4.3,4.49a2.59,2.59,0,0,0,2.24-.08,2.69,2.69,0,0,0,.68-3.38Z" transform="translate(-258.89 -686.07)"/><path class="cls-7" d="M440.57,750.58v-2.91H402.94l.53,21.82-7.73-6.62-2.34,2.06,13.34,12.28-.05-26.64Z" transform="translate(-258.89 -686.07)"/><path class="cls-6" d="M310.85,762.28v7.05a3,3,0,0,0,1.89,1.74,2.94,2.94,0,0,0,3.21-2.14l-.24-6.92,6.16-.26a2.77,2.77,0,0,0,2.95-2.11,2.9,2.9,0,0,0-3.06-3l-6,.22-.41-6.59a2.49,2.49,0,1,0-5,0l.33,6.69-6.56.35a2.61,2.61,0,0,0-2.49,2.48,2.64,2.64,0,0,0,2.56,2.81Z" transform="translate(-258.89 -686.07)"/><rect class="cls-7" x="43.97" y="86.69" width="21.99" height="3.11"/><line class="cls-5" x1="4.02" y1="149.37" x2="21.39" y2="135.74"/><line class="cls-5" x1="3.94" y1="164.71" x2="21.31" y2="151.08"/><path class="cls-5" d="M364.57,860.8" transform="translate(-258.89 -686.07)"/><path class="cls-5" d="M363.73,749.32" transform="translate(-258.89 -686.07)"/><path class="cls-5" d="M382.16,757.49" transform="translate(-258.89 -686.07)"/><path class="cls-5" d="M364.24,770.12" transform="translate(-258.89 -686.07)"/><line class="cls-5" x1="104.77" y1="95.85" x2="122.45" y2="83.34"/><path class="cls-5" d="M382.33,787.76" transform="translate(-258.89 -686.07)"/><path class="cls-5" d="M364.18,802" transform="translate(-258.89 -686.07)"/><path class="cls-5" d="M382.33,803.54" transform="translate(-258.89 -686.07)"/><path class="cls-5" d="M364.18,817.8" transform="translate(-258.89 -686.07)"/><path class="cls-5" d="M383,816.85" transform="translate(-258.89 -686.07)"/><path class="cls-5" d="M365.62,830.51" transform="translate(-258.89 -686.07)"/><path class="cls-5" d="M382.92,839.55" transform="translate(-258.89 -686.07)"/><path class="cls-5" d="M367.12,851.85" transform="translate(-258.89 -686.07)"/><path class="cls-5" d="M379.65,746.65" transform="translate(-258.89 -686.07)"/><path class="cls-5" d="M364.23,758.74" transform="translate(-258.89 -686.07)"/><path class="cls-5" d="M377.79,742.91" transform="translate(-258.89 -686.07)"/><path class="cls-5" d="M363.73,753.94" transform="translate(-258.89 -686.07)"/><path class="cls-5" d="M382.43,773.6" transform="translate(-258.89 -686.07)"/><path class="cls-5" d="M364.28,787.86" transform="translate(-258.89 -686.07)"/><line class="cls-5" x1="103.45" y1="81.51" x2="121.6" y2="67.25"/><line class="cls-5" x1="103.38" y1="86.9" x2="121.53" y2="72.63"/><line class="cls-5" x1="103.44" y1="75.64" x2="120.68" y2="62.09"/><line class="cls-5" x1="103.87" y1="69.24" x2="118.47" y2="57.77"/><line class="cls-5" x1="104.81" y1="102.71" x2="122.96" y2="88.45"/><line class="cls-5" x1="104.89" y1="109.2" x2="123.03" y2="94.94"/><line class="cls-5" x1="104.29" y1="115.34" x2="122.43" y2="101.07"/><line class="cls-5" x1="104.46" y1="121.74" x2="122.61" y2="107.47"/><line class="cls-5" x1="105.1" y1="128.06" x2="123.25" y2="113.79"/><line class="cls-5" x1="104.92" y1="134.87" x2="123.07" y2="120.6"/><line class="cls-5" x1="104.28" y1="142.67" x2="122.43" y2="128.4"/><line class="cls-5" x1="103.71" y1="149.36" x2="121.86" y2="135.1"/><line class="cls-5" x1="104.61" y1="157.12" x2="122.76" y2="142.86"/><line class="cls-5" x1="105.25" y1="164.57" x2="123.4" y2="150.31"/><line class="cls-5" x1="4.02" y1="156.8" x2="21.39" y2="143.17"/><line class="cls-5" x1="3.94" y1="140.84" x2="21.31" y2="127.21"/><line class="cls-5" x1="4.02" y1="127.74" x2="21.39" y2="114.11"/><line class="cls-5" x1="4.02" y1="113.74" x2="21.39" y2="100.12"/><line class="cls-5" x1="3.94" y1="101.52" x2="21.31" y2="87.89"/><line class="cls-5" x1="3.94" y1="89.76" x2="21.31" y2="76.13"/><line class="cls-5" x1="3.94" y1="78.23" x2="21.31" y2="64.61"/><rect class="cls-8" x="315.73" y="883.73" width="4.95" height="29.44" transform="translate(-261.17 -685.25) rotate(-0.15)"/><path class="cls-8" d="M332.56,892.16c0-4.68-5-8.45-11.12-8.44l0,16.93C327.61,900.64,332.57,896.83,332.56,892.16Z" transform="translate(-258.89 -686.07)"/><polygon class="cls-8" points="70.25 213.3 66.33 215.27 72.86 227.07 76.78 225.1 70.25 213.3"/><polygon class="cls-9" points="148.24 206.7 141.02 196.87 138.41 224.14 141.74 225.41 142.87 206.11 148.3 212.47 153.29 206.76 155.5 225.46 159.79 223.87 155.01 196.02 148.24 206.7"/><path class="cls-10" d="M304.54,872.57,304,909.21l-13.31-34.65-14.31,38.68,5.72,2.22,3.27-11.5,10.46-.24,4,11.1,9.93,0,.62-38.14,134.32-.7v-3.8Zm-18.42,25.26,4.82-11.33,4.87,11.31Z" transform="translate(-258.89 -686.07)"/><polygon class="cls-11" points="109.68 198.09 86.19 198.15 86.2 203.26 95.44 203.34 95.8 226.46 100.51 226.45 100.25 203.18 109.5 203.01 109.68 198.09"/><path class="cls-12" d="M394.71,883.26l-22.08-.2-.05,5.73,5.73.1a51.29,51.29,0,0,1-3.91,13.45,46.53,46.53,0,0,1-4.77,8.25l4.84.77a51.45,51.45,0,0,0,3.91-8.73,54.67,54.67,0,0,0,2.72-13.49l3.38-.28a80.62,80.62,0,0,0,4,20.14c.49,1.44.6,1.8,1.13,3.12,2.52-.28,5.91-.51,5.91-.51,0-.22-.21-.38-.31-.47-.81-.66-1.5-2.22-2.89-5.32-.94-2.12-2.93-8.44-3.58-17.3l6-.67Z" transform="translate(-258.89 -686.07)"/><path class="cls-13" d="M339.61,902.15a22.9,22.9,0,0,1,.63-12.33c-1.4.18-2.33-.15-3.72,0-1.21,4.35-2.68,12.61,1.66,20.23a22.44,22.44,0,0,0,1.66,2.49L344,912A24.29,24.29,0,0,1,339.61,902.15Z" transform="translate(-258.89 -686.07)"/><ellipse class="cls-13" cx="338.92" cy="885.43" rx="2.76" ry="2.61" transform="translate(-260.86 -685.31) rotate(-0.13)"/><path class="cls-14" d="M436.39,894.33c-.47-5.12-3.08-9.05-6.24-9s-5.76,4-6.2,9.07Z" transform="translate(-258.89 -686.07)"/><path class="cls-14" d="M424.05,898.31c.66,4.71,3.16,8.22,6.15,8.21s5.48-3.53,6.11-8.24Z" transform="translate(-258.89 -686.07)"/><path class="cls-15" d="M429.72,880.33c-5.55,0-10,7-10,15.6s4.54,15.57,10.09,15.56,10-7,10-15.61S435.28,880.31,429.72,880.33Zm.43,5c3.16,0,5.77,3.92,6.24,9l-12.44,0C424.39,889.24,427,885.3,430.15,885.29Zm.05,21.23c-3,0-5.49-3.5-6.15-8.21l12.26,0C435.68,903,433.19,906.52,430.2,906.52Z" transform="translate(-258.89 -686.07)"/></svg>