<svg id="Capa_1" data-name="Capa 1" xmlns="http://www.w3.org/2000/svg" viewBox="0 0 287.55 287.55"><defs><style>.cls-1{fill:#fff;}.cls-1,.cls-2{stroke:#1d1d1b;}.cls-1,.cls-10,.cls-11,.cls-12,.cls-13,.cls-2,.cls-4,.cls-5,.cls-6,.cls-8{stroke-miterlimit:10;}.cls-1,.cls-6{stroke-width:2px;}.cls-15,.cls-2,.cls-4,.cls-6{fill:none;}.cls-3,.cls-5{fill:#5c4695;}.cls-4{stroke:#2790cf;}.cls-5,.cls-6,.cls-8{stroke:#fff;}.cls-7,.cls-8{fill:#f5edcd;}.cls-8{stroke-width:0.1px;}.cls-9{fill:#a8c714;}.cls-10{fill:#8d2f88;stroke:#652580;}.cls-11{fill:#e84c30;stroke:#e45f5d;stroke-width:0.5px;}.cls-12{fill:#ffd83f;stroke:#ffd83f;}.cls-13{fill:#298fce;stroke:#298fce;}.cls-14{fill:#e32521;}.cls-16{fill:#0c0c0c;}</style></defs><circle class="cls-1" cx="143.77" cy="143.77" r="142.77"/><path class="cls-2" d="M512.56,318.17" transform="translate(-277.17 -160.21)"/><path class="cls-3" d="M388.44,205.1a2.49,2.49,0,1,0-3.54,3.49l4.93,4.54L385.41,218a2.62,2.62,0,0,0,0,3.51,2.66,2.66,0,0,0,3.8.21l4.49-4.85,4.95,5A2.63,2.63,0,0,0,402,218l-5-4.76,4.19-4.51a2.79,2.79,0,0,0,.63-3.58,2.92,2.92,0,0,0-4.31,0l-4.1,4.34Z" transform="translate(-277.17 -160.21)"/><path class="cls-2" d="M436.53,191.87" transform="translate(-277.17 -160.21)"/><path class="cls-3" d="M435.06,183.3l-21.74-.24-.05,5.54,5.63.1a48.77,48.77,0,0,1-3.88,13,44.58,44.58,0,0,1-4.71,8l4.76.75a49.35,49.35,0,0,0,3.87-8.43,52.1,52.1,0,0,0,2.71-13l3.32-.27a77.12,77.12,0,0,0,3.9,19.49c.47,1.4.58,1.74,1.1,3,2.48-.25,5.82-.47,5.82-.47,0-.21-.21-.37-.3-.45-.8-.65-1.48-2.15-2.84-5.16-.92-2.05-2.86-8.17-3.48-16.73l5.93-.63Z" transform="translate(-277.17 -160.21)"/><path class="cls-4" d="M458.46,315.42" transform="translate(-277.17 -160.21)"/><ellipse class="cls-3" cx="172.45" cy="45.95" rx="3.03" ry="3.14"/><ellipse class="cls-3" cx="180.43" cy="59.25" rx="3.03" ry="3.14"/><path class="cls-3" d="M465.07,204.56c-.58-1.33-3.82-.6-7.1,1.75l-12.9,9.34c-2.86,2.51-4,5-2.85,5.75.92.6,3.21,0,5.72-1.51l12.9-9.34C463.79,208.39,465.59,205.76,465.07,204.56Z" transform="translate(-277.17 -160.21)"/><path class="cls-5" d="M369.54,337.6c1.66-.18,3.34-.28,5-.3a49.79,49.79,0,0,1,7.66.56,70,70,0,0,1,42.64,20.78l.05,0s0,0,.05-.05c2.26-2.83,16.14-21.52,41.88-22.83a43.64,43.64,0,0,1,13.45.62c22.9,3.09,34,15.75,39.29,21.42a1.13,1.13,0,0,0,1.95-.79l-.84-116.45a1.08,1.08,0,0,0-.42-.86A72.21,72.21,0,0,0,473,224.58a70.28,70.28,0,0,0-48.09,21.62,1.13,1.13,0,0,1-1.66,0c-4-4.39-22-20.87-51.7-22.44-29.35-1.55-47.8,20-50.83,23.43a1.1,1.1,0,0,0-.29.75V359.6a1.13,1.13,0,0,0,1.8.91h0a1,1,0,0,0,.18-.17A70.23,70.23,0,0,1,369.54,337.6Z" transform="translate(-277.17 -160.21)"/><path class="cls-5" d="M483.55,336.45c-1.21-.35-2.41-.65-3.6-.89a79.31,79.31,0,0,0-10.69-.7c-.94,0-1.85,0-2.76.08-22,2.35-38.65,20.14-41.88,22.83l-.05.07-.05,0C419,354.56,402.22,340,381.88,337a69.86,69.86,0,0,0-7.65-.43c-1.73,0-3.4.06-5,.17-21.45,2.3-40.06,17.47-47.29,22.87l94.28.23a.8.8,0,0,1,.44,1.48h0c-.58.54-.18,1.67.44,1.48h15.49l-1.05-2a1,1,0,0,1,.86-1.62l88.87-.24h0C515.72,354.72,506.86,343.28,483.55,336.45Z" transform="translate(-277.17 -160.21)"/><line class="cls-6" x1="46.32" y1="94.99" x2="64.47" y2="80.73"/><line class="cls-6" x1="46.49" y1="106.25" x2="64.36" y2="92.24"/><line class="cls-6" x1="46.53" y1="118.43" x2="64.34" y2="104.46"/><line class="cls-6" x1="46.59" y1="130.69" x2="64.17" y2="116.59"/><line class="cls-6" x1="46.67" y1="143.7" x2="64.12" y2="129.21"/><line class="cls-6" x1="46.67" y1="156.87" x2="64.04" y2="143.25"/><path class="cls-6" d="M444.08,321.79" transform="translate(-277.17 -160.21)"/><path class="cls-6" d="M427.29,334.86" transform="translate(-277.17 -160.21)"/><path class="cls-6" d="M444.36,330.12" transform="translate(-277.17 -160.21)"/><path class="cls-6" d="M427.36,343.36" transform="translate(-277.17 -160.21)"/><path class="cls-6" d="M442.74,249" transform="translate(-277.17 -160.21)"/><path class="cls-6" d="M425.57,261.36" transform="translate(-277.17 -160.21)"/><line class="cls-6" x1="146.98" y1="113.78" x2="164.5" y2="101.15"/><path class="cls-6" d="M442.6,278.28" transform="translate(-277.17 -160.21)"/><path class="cls-6" d="M425.82,290.88" transform="translate(-277.17 -160.21)"/><path class="cls-6" d="M442.5,292.71" transform="translate(-277.17 -160.21)"/><path class="cls-6" d="M424.63,306.72" transform="translate(-277.17 -160.21)"/><path class="cls-6" d="M443.75,307.75" transform="translate(-277.17 -160.21)"/><path class="cls-6" d="M426,321.72" transform="translate(-277.17 -160.21)"/><path class="cls-7" d="M485.5,258.86l3.65-4a2.53,2.53,0,0,0,.54-3.2,2.47,2.47,0,0,0-3.74,0c-1.19,1.3-2.38,2.59-3.56,3.89l-4.27-3.94a2.38,2.38,0,0,0-3.49.45,2.54,2.54,0,0,0,.41,2.67l4.29,4.07-3.85,4.34a2.4,2.4,0,0,0,0,3.15,2.26,2.26,0,0,0,3.3.18l3.9-4.34,4.31,4.49a2.56,2.56,0,0,0,2.23-.08,2.68,2.68,0,0,0,.68-3.38Z" transform="translate(-277.17 -160.21)"/><path class="cls-8" d="M501.58,247.57v-2.91H464l.54,21.81-7.74-6.61-2.34,2.06q6.68,6.13,13.34,12.28l0-26.64Z" transform="translate(-277.17 -160.21)"/><path class="cls-7" d="M371.87,259.27v7.05a3,3,0,0,0,1.89,1.74,3,3,0,0,0,3.22-2.14l-.24-6.92,6.15-.26a2.79,2.79,0,0,0,3-2.11,2.91,2.91,0,0,0-3.07-3l-6,.21-.41-6.58a2.48,2.48,0,1,0-5,0q.15,3.34.32,6.69l-6.56.35a2.62,2.62,0,0,0-2.49,2.48,2.65,2.65,0,0,0,2.56,2.81Z" transform="translate(-277.17 -160.21)"/><rect class="cls-8" x="86.7" y="109.54" width="21.99" height="3.11"/><line class="cls-6" x1="46.75" y1="172.21" x2="64.12" y2="158.59"/><line class="cls-6" x1="46.67" y1="187.56" x2="64.04" y2="173.93"/><path class="cls-6" d="M425.59,357.79" transform="translate(-277.17 -160.21)"/><path class="cls-6" d="M424.74,246.3" transform="translate(-277.17 -160.21)"/><path class="cls-6" d="M443.17,254.48" transform="translate(-277.17 -160.21)"/><path class="cls-6" d="M425.25,267.11" transform="translate(-277.17 -160.21)"/><line class="cls-6" x1="147.5" y1="118.7" x2="165.18" y2="106.19"/><path class="cls-6" d="M443.34,284.75" transform="translate(-277.17 -160.21)"/><path class="cls-6" d="M425.19,299" transform="translate(-277.17 -160.21)"/><path class="cls-6" d="M443.34,300.53" transform="translate(-277.17 -160.21)"/><path class="cls-6" d="M425.19,314.79" transform="translate(-277.17 -160.21)"/><path class="cls-6" d="M444,313.84" transform="translate(-277.17 -160.21)"/><path class="cls-6" d="M426.64,327.5" transform="translate(-277.17 -160.21)"/><path class="cls-6" d="M443.93,336.54" transform="translate(-277.17 -160.21)"/><path class="cls-6" d="M428.13,348.84" transform="translate(-277.17 -160.21)"/><path class="cls-6" d="M440.66,243.64" transform="translate(-277.17 -160.21)"/><path class="cls-6" d="M425.24,255.73" transform="translate(-277.17 -160.21)"/><path class="cls-6" d="M438.81,239.9" transform="translate(-277.17 -160.21)"/><path class="cls-6" d="M424.74,250.93" transform="translate(-277.17 -160.21)"/><path class="cls-6" d="M443.44,270.59" transform="translate(-277.17 -160.21)"/><path class="cls-6" d="M425.29,284.85" transform="translate(-277.17 -160.21)"/><line class="cls-6" x1="146.18" y1="104.36" x2="164.33" y2="90.09"/><line class="cls-6" x1="146.11" y1="109.75" x2="164.26" y2="95.48"/><line class="cls-6" x1="146.16" y1="98.49" x2="163.41" y2="84.94"/><line class="cls-6" x1="146.6" y1="92.09" x2="161.19" y2="80.62"/><line class="cls-6" x1="147.54" y1="125.56" x2="165.69" y2="111.3"/><line class="cls-6" x1="147.61" y1="132.05" x2="165.76" y2="117.79"/><line class="cls-6" x1="147.01" y1="138.18" x2="165.16" y2="123.92"/><line class="cls-6" x1="147.19" y1="144.58" x2="165.34" y2="130.32"/><line class="cls-6" x1="147.83" y1="150.91" x2="165.98" y2="136.64"/><line class="cls-6" x1="147.65" y1="157.72" x2="165.8" y2="143.45"/><line class="cls-6" x1="147.01" y1="165.52" x2="165.16" y2="151.25"/><line class="cls-6" x1="146.44" y1="172.21" x2="164.58" y2="157.94"/><line class="cls-6" x1="147.34" y1="179.97" x2="165.49" y2="165.7"/><line class="cls-6" x1="147.98" y1="187.42" x2="166.13" y2="173.15"/><line class="cls-6" x1="46.75" y1="179.65" x2="64.12" y2="166.02"/><line class="cls-6" x1="46.67" y1="163.69" x2="64.04" y2="150.06"/><line class="cls-6" x1="46.75" y1="150.59" x2="64.12" y2="136.96"/><line class="cls-6" x1="46.75" y1="136.59" x2="64.12" y2="122.97"/><line class="cls-6" x1="46.67" y1="124.37" x2="64.04" y2="110.74"/><line class="cls-6" x1="46.67" y1="112.61" x2="64.04" y2="98.98"/><line class="cls-6" x1="46.67" y1="101.08" x2="64.04" y2="87.46"/><rect class="cls-9" x="376.74" y="380.72" width="4.95" height="29.44" transform="translate(-278.18 -159.24) rotate(-0.15)"/><path class="cls-9" d="M393.57,389.15c0-4.68-5-8.45-11.12-8.44l.05,16.93C388.62,397.62,393.58,393.82,393.57,389.15Z" transform="translate(-277.17 -160.21)"/><polygon class="cls-9" points="112.98 236.14 109.05 238.12 115.58 249.92 119.51 247.94 112.98 236.14"/><polygon class="cls-10" points="190.97 229.55 183.75 219.72 181.13 246.99 184.47 248.26 185.59 228.96 191.03 235.31 196.02 229.61 198.23 248.31 202.52 246.72 197.74 218.86 190.97 229.55"/><path class="cls-11" d="M365.55,369.56,365,406.2l-13.3-34.66L337.4,410.23l5.71,2.22,3.28-11.5,10.45-.24,4,11.1,9.94,0,.62-38.14,134.32-.7v-3.8Zm-18.41,25.26L352,383.49l4.87,11.31Z" transform="translate(-277.17 -160.21)"/><polygon class="cls-12" points="152.41 220.94 128.92 221 128.93 226.11 138.17 226.18 138.53 249.31 143.24 249.29 142.98 226.02 152.22 225.86 152.41 220.94"/><path class="cls-13" d="M455.73,380.25l-22.09-.2,0,5.73,5.72.09a51.23,51.23,0,0,1-3.91,13.46,46.56,46.56,0,0,1-4.76,8.25l4.83.77a51.23,51.23,0,0,0,3.91-8.74,54.6,54.6,0,0,0,2.73-13.48l3.37-.29a80.74,80.74,0,0,0,4,20.15c.48,1.44.59,1.8,1.13,3.11,2.52-.27,5.91-.5,5.91-.5a.68.68,0,0,0-.31-.47c-.82-.66-1.51-2.22-2.89-5.32-.95-2.12-2.94-8.44-3.58-17.3l6-.67Z" transform="translate(-277.17 -160.21)"/><path class="cls-14" d="M400.62,399.14a23,23,0,0,1,.63-12.33c-1.39.18-2.33-.15-3.72,0-1.21,4.35-2.68,12.61,1.67,20.23a22.39,22.39,0,0,0,1.65,2.49L405,409A24.29,24.29,0,0,1,400.62,399.14Z" transform="translate(-277.17 -160.21)"/><ellipse class="cls-14" cx="399.94" cy="382.42" rx="2.76" ry="2.61" transform="matrix(1, 0, 0, 1, -278.02, -159.32)"/><path class="cls-15" d="M497.4,391.32c-.46-5.12-3.08-9.05-6.24-9s-5.76,4-6.19,9.07Z" transform="translate(-277.17 -160.21)"/><path class="cls-15" d="M485.07,395.3c.65,4.71,3.16,8.22,6.14,8.21s5.48-3.53,6.11-8.24Z" transform="translate(-277.17 -160.21)"/><path class="cls-16" d="M490.74,377.31c-5.56,0-10,7-10,15.61s4.54,15.57,10.1,15.56,10-7,10-15.61S496.29,377.3,490.74,377.31Zm.42,5c3.16,0,5.78,3.92,6.24,9l-12.43,0C485.4,386.23,488,382.28,491.16,382.28Zm0,21.23c-3,0-5.49-3.5-6.14-8.21l12.25,0C496.69,400,494.2,403.51,491.21,403.51Z" transform="translate(-277.17 -160.21)"/></svg>