<svg id="Capa_1" data-name="Capa 1" xmlns="http://www.w3.org/2000/svg" viewBox="0 0 324.55 324.55"><defs><style>.cls-1{fill:#fff;}.cls-15,.cls-2,.cls-4,.cls-6{fill:none;}.cls-2{stroke:#1d1d1b;}.cls-10,.cls-11,.cls-12,.cls-13,.cls-2,.cls-4,.cls-5,.cls-6,.cls-8{stroke-miterlimit:10;}.cls-3,.cls-5{fill:#094d68;}.cls-4{stroke:#2790cf;}.cls-5,.cls-6,.cls-8{stroke:#fff;}.cls-6{stroke-width:2px;}.cls-7,.cls-8{fill:#f5edcd;}.cls-8{stroke-width:0.1px;}.cls-9{fill:#a8c714;}.cls-10{fill:#8d2f88;stroke:#652580;}.cls-11{fill:#e84c30;stroke:#e45f5d;stroke-width:0.5px;}.cls-12{fill:#ffd83f;stroke:#ffd83f;}.cls-13{fill:#298fce;stroke:#298fce;}.cls-14{fill:#e32521;}.cls-16{fill:#0c0c0c;}</style></defs><circle class="cls-1" cx="162.27" cy="162.27" r="162.27"/><path class="cls-2" d="M514.31,315.56" transform="translate(-258.53 -135.64)"/><path class="cls-3" d="M390.19,202.49a2.49,2.49,0,1,0-3.54,3.49l4.93,4.53-4.43,4.86a2.65,2.65,0,0,0,3.77,3.72l4.48-4.85,5,5a2.63,2.63,0,0,0,3.35-3.86l-5-4.76,4.2-4.51a2.77,2.77,0,0,0,.62-3.58,2.92,2.92,0,0,0-4.31,0l-4.09,4.35Z" transform="translate(-258.53 -135.64)"/><path class="cls-2" d="M438.28,189.26" transform="translate(-258.53 -135.64)"/><path class="cls-3" d="M436.81,180.69l-21.74-.25L415,186l5.64.1a48.77,48.77,0,0,1-3.88,13,45.55,45.55,0,0,1-4.71,8l4.76.75a49.76,49.76,0,0,0,3.86-8.43,52.18,52.18,0,0,0,2.72-13l3.32-.27a76.63,76.63,0,0,0,3.89,19.49c.48,1.39.59,1.74,1.11,3,2.48-.25,5.82-.47,5.82-.47,0-.21-.21-.37-.31-.45-.8-.65-1.47-2.15-2.83-5.16-.93-2.05-2.87-8.17-3.48-16.73l5.93-.64Z" transform="translate(-258.53 -135.64)"/><path class="cls-4" d="M460.21,312.81" transform="translate(-258.53 -135.64)"/><ellipse class="cls-3" cx="192.84" cy="67.91" rx="3.03" ry="3.14"/><ellipse class="cls-3" cx="200.82" cy="81.2" rx="3.03" ry="3.14"/><path class="cls-3" d="M466.81,201.94c-.57-1.32-3.81-.59-7.09,1.76L446.82,213c-2.86,2.51-4,5-2.86,5.75.92.6,3.21,0,5.73-1.51l12.89-9.34C465.54,205.78,467.34,203.15,466.81,201.94Z" transform="translate(-258.53 -135.64)"/><path class="cls-5" d="M371.28,335a48,48,0,0,1,12.69.26A70,70,0,0,1,426.61,356l.05,0,.06-.05c2.26-2.83,16.14-21.52,41.87-22.83a43.62,43.62,0,0,1,13.45.62c22.9,3.09,34,15.75,39.29,21.41a1.12,1.12,0,0,0,1.95-.78L522.45,238a1.14,1.14,0,0,0-.42-.87A72.29,72.29,0,0,0,474.71,222a70.28,70.28,0,0,0-48.08,21.62,1.13,1.13,0,0,1-1.66,0c-4-4.39-22-20.87-51.7-22.44-29.36-1.56-47.8,20-50.84,23.43a1.14,1.14,0,0,0-.28.75V357a1.13,1.13,0,0,0,1.8.91h0l.18-.17A70.19,70.19,0,0,1,371.28,335Z" transform="translate(-258.53 -135.64)"/><path class="cls-5" d="M485.3,333.84c-1.21-.36-2.41-.65-3.61-.89a79.2,79.2,0,0,0-10.69-.7c-.93,0-1.85,0-2.75.08-22,2.35-38.66,20.14-41.88,22.83l-.06.07-.05-.06c-5.48-3.22-22.3-17.75-42.63-20.77A72.58,72.58,0,0,0,376,334c-1.72,0-3.39.07-5,.18-21.44,2.3-40.06,17.47-47.29,22.87l94.29.23a.81.81,0,0,1,.44,1.48h0c-.58.54-.18,1.67.44,1.48h15.48l-1.05-2a1,1,0,0,1,.87-1.62l88.87-.25h0C517.47,352.11,508.61,340.67,485.3,333.84Z" transform="translate(-258.53 -135.64)"/><line class="cls-6" x1="66.7" y1="116.94" x2="84.85" y2="102.68"/><line class="cls-6" x1="66.88" y1="128.2" x2="84.74" y2="114.19"/><line class="cls-6" x1="66.92" y1="140.38" x2="84.73" y2="126.41"/><line class="cls-6" x1="66.98" y1="152.65" x2="84.56" y2="138.55"/><line class="cls-6" x1="67.05" y1="165.66" x2="84.5" y2="151.17"/><line class="cls-6" x1="67.05" y1="178.82" x2="84.43" y2="165.2"/><path class="cls-6" d="M445.82,319.18" transform="translate(-258.53 -135.64)"/><path class="cls-6" d="M429,332.25" transform="translate(-258.53 -135.64)"/><path class="cls-6" d="M446.11,327.51" transform="translate(-258.53 -135.64)"/><path class="cls-6" d="M429.1,340.75" transform="translate(-258.53 -135.64)"/><path class="cls-6" d="M444.49,246.34" transform="translate(-258.53 -135.64)"/><path class="cls-6" d="M427.31,258.75" transform="translate(-258.53 -135.64)"/><line class="cls-6" x1="167.37" y1="135.74" x2="184.89" y2="123.1"/><path class="cls-6" d="M444.35,275.66" transform="translate(-258.53 -135.64)"/><path class="cls-6" d="M427.57,288.27" transform="translate(-258.53 -135.64)"/><path class="cls-6" d="M444.25,290.1" transform="translate(-258.53 -135.64)"/><path class="cls-6" d="M426.38,304.11" transform="translate(-258.53 -135.64)"/><path class="cls-6" d="M445.5,305.14" transform="translate(-258.53 -135.64)"/><path class="cls-6" d="M427.69,319.11" transform="translate(-258.53 -135.64)"/><path class="cls-7" d="M487.25,256.25l3.64-4a2.53,2.53,0,0,0,.55-3.2,2.48,2.48,0,0,0-3.75,0c-1.18,1.3-2.37,2.59-3.56,3.89L479.86,249a2.38,2.38,0,0,0-3.49.45,2.54,2.54,0,0,0,.42,2.67l4.28,4.06-3.84,4.35a2.39,2.39,0,0,0,0,3.14,2.26,2.26,0,0,0,3.3.19l3.9-4.34,4.3,4.49a2.59,2.59,0,0,0,2.24-.08,2.7,2.7,0,0,0,.68-3.39Z" transform="translate(-258.53 -135.64)"/><path class="cls-8" d="M503.33,245v-2.91H465.7l.53,21.81-7.73-6.61-2.34,2.05,13.34,12.29L469.45,245Z" transform="translate(-258.53 -135.64)"/><path class="cls-7" d="M373.61,256.66v7a2.63,2.63,0,0,0,5.1-.4l-.24-6.92,6.16-.27a2.76,2.76,0,0,0,2.95-2.1,2.92,2.92,0,0,0-3.07-3l-6,.22-.41-6.58a2.49,2.49,0,1,0-5,0l.33,6.69-6.56.35a2.61,2.61,0,0,0-2.49,2.48A2.65,2.65,0,0,0,367,257Z" transform="translate(-258.53 -135.64)"/><rect class="cls-8" x="107.09" y="131.49" width="21.99" height="3.11"/><line class="cls-6" x1="67.13" y1="194.17" x2="84.51" y2="180.54"/><line class="cls-6" x1="67.05" y1="209.51" x2="84.43" y2="195.88"/><path class="cls-6" d="M427.33,355.17" transform="translate(-258.53 -135.64)"/><path class="cls-6" d="M426.49,243.69" transform="translate(-258.53 -135.64)"/><path class="cls-6" d="M444.92,251.87" transform="translate(-258.53 -135.64)"/><path class="cls-6" d="M427,264.5" transform="translate(-258.53 -135.64)"/><line class="cls-6" x1="167.89" y1="140.65" x2="185.56" y2="128.14"/><path class="cls-6" d="M445.09,282.14" transform="translate(-258.53 -135.64)"/><path class="cls-6" d="M426.94,296.4" transform="translate(-258.53 -135.64)"/><path class="cls-6" d="M445.09,297.92" transform="translate(-258.53 -135.64)"/><path class="cls-6" d="M426.94,312.18" transform="translate(-258.53 -135.64)"/><path class="cls-6" d="M445.76,311.23" transform="translate(-258.53 -135.64)"/><path class="cls-6" d="M428.38,324.89" transform="translate(-258.53 -135.64)"/><path class="cls-6" d="M445.68,333.93" transform="translate(-258.53 -135.64)"/><path class="cls-6" d="M429.88,346.23" transform="translate(-258.53 -135.64)"/><path class="cls-6" d="M442.41,241" transform="translate(-258.53 -135.64)"/><path class="cls-6" d="M427,253.12" transform="translate(-258.53 -135.64)"/><path class="cls-6" d="M440.55,237.29" transform="translate(-258.53 -135.64)"/><path class="cls-6" d="M426.49,248.32" transform="translate(-258.53 -135.64)"/><path class="cls-6" d="M445.19,268" transform="translate(-258.53 -135.64)"/><path class="cls-6" d="M427,282.24" transform="translate(-258.53 -135.64)"/><line class="cls-6" x1="166.56" y1="126.31" x2="184.71" y2="112.05"/><line class="cls-6" x1="166.49" y1="131.7" x2="184.64" y2="117.43"/><line class="cls-6" x1="166.55" y1="120.44" x2="183.8" y2="106.89"/><line class="cls-6" x1="166.99" y1="114.04" x2="181.58" y2="102.57"/><line class="cls-6" x1="167.93" y1="147.51" x2="186.08" y2="133.25"/><line class="cls-6" x1="168" y1="154" x2="186.15" y2="139.74"/><line class="cls-6" x1="167.4" y1="160.14" x2="185.55" y2="145.87"/><line class="cls-6" x1="167.58" y1="166.54" x2="185.73" y2="152.27"/><line class="cls-6" x1="168.21" y1="172.86" x2="186.36" y2="158.59"/><line class="cls-6" x1="168.04" y1="179.67" x2="186.19" y2="165.4"/><line class="cls-6" x1="167.4" y1="187.47" x2="185.54" y2="173.2"/><line class="cls-6" x1="166.82" y1="194.16" x2="184.97" y2="179.9"/><line class="cls-6" x1="167.72" y1="201.92" x2="185.87" y2="187.66"/><line class="cls-6" x1="168.37" y1="209.37" x2="186.52" y2="195.11"/><line class="cls-6" x1="67.13" y1="201.6" x2="84.51" y2="187.97"/><line class="cls-6" x1="67.05" y1="185.64" x2="84.43" y2="172.01"/><line class="cls-6" x1="67.13" y1="172.54" x2="84.51" y2="158.91"/><line class="cls-6" x1="67.13" y1="158.54" x2="84.51" y2="144.92"/><line class="cls-6" x1="67.05" y1="146.32" x2="84.43" y2="132.69"/><line class="cls-6" x1="67.05" y1="134.56" x2="84.43" y2="120.93"/><line class="cls-6" x1="67.05" y1="123.03" x2="84.43" y2="109.41"/><rect class="cls-9" x="378.49" y="378.11" width="4.95" height="29.44" transform="translate(-259.53 -134.67) rotate(-0.15)"/><path class="cls-9" d="M395.31,386.54c0-4.68-5-8.46-11.11-8.44l0,16.93C390.37,395,395.33,391.21,395.31,386.54Z" transform="translate(-258.53 -135.64)"/><polygon class="cls-9" points="133.37 258.1 129.44 260.07 135.97 271.87 139.9 269.9 133.37 258.1"/><polygon class="cls-10" points="211.36 251.5 204.14 241.67 201.52 268.94 204.85 270.21 205.98 250.91 211.41 257.26 216.4 251.56 218.62 270.26 222.91 268.67 218.13 240.82 211.36 251.5"/><path class="cls-11" d="M367.3,366.94l-.54,36.65-13.31-34.66-14.31,38.69,5.72,2.22,3.27-11.5,10.46-.25,4,11.11,9.93,0,.62-38.14,134.32-.7v-3.8Zm-18.42,25.27,4.82-11.33,4.87,11.3Z" transform="translate(-258.53 -135.64)"/><polygon class="cls-12" points="172.79 242.89 149.31 242.95 149.32 248.06 158.56 248.13 158.91 271.26 163.63 271.25 163.37 247.97 172.61 247.81 172.79 242.89"/><path class="cls-13" d="M457.47,377.64l-22.09-.2,0,5.73,5.73.09a51.18,51.18,0,0,1-3.91,13.45,46.3,46.3,0,0,1-4.77,8.26l4.84.76a50.73,50.73,0,0,0,3.91-8.73,54.6,54.6,0,0,0,2.72-13.48l3.38-.29a80.69,80.69,0,0,0,4,20.15c.49,1.44.6,1.8,1.13,3.11,2.52-.27,5.91-.5,5.91-.5,0-.22-.21-.39-.31-.47-.81-.67-1.5-2.22-2.89-5.32-.95-2.13-2.93-8.45-3.58-17.3l6-.67Z" transform="translate(-258.53 -135.64)"/><path class="cls-14" d="M402.37,396.53a22.93,22.93,0,0,1,.63-12.34c-1.4.19-2.33-.14-3.72,0-1.21,4.35-2.68,12.62,1.66,20.24A21.41,21.41,0,0,0,402.6,407l4.18-.54A24.29,24.29,0,0,1,402.37,396.53Z" transform="translate(-258.53 -135.64)"/><ellipse class="cls-14" cx="401.68" cy="379.81" rx="2.76" ry="2.61" transform="translate(-259.38 -134.75) rotate(-0.13)"/><path class="cls-15" d="M499.15,388.71c-.47-5.12-3.08-9-6.24-9s-5.76,3.95-6.2,9.07Z" transform="translate(-258.53 -135.64)"/><path class="cls-15" d="M486.81,392.69c.66,4.71,3.16,8.22,6.15,8.21s5.47-3.53,6.11-8.24Z" transform="translate(-258.53 -135.64)"/><path class="cls-16" d="M492.48,374.7c-5.55,0-10,7-10,15.61s4.54,15.57,10.09,15.56,10-7,10-15.61S498,374.69,492.48,374.7Zm.43,5c3.16,0,5.77,3.92,6.24,9l-12.44,0C487.15,383.62,489.75,379.67,492.91,379.67Zm0,21.23c-3,0-5.49-3.5-6.15-8.21l12.26,0C498.43,397.37,496,400.89,493,400.9Z" transform="translate(-258.53 -135.64)"/></svg>