<svg id="Capa_1" data-name="Capa 1" xmlns="http://www.w3.org/2000/svg" viewBox="0 0 371.48 371.88"><defs><style>.cls-1{fill:#1e386a;}.cls-2{fill:#586bb1;}.cls-3{fill:#a6d7e7;}.cls-4{fill:#1f1f1d;}.cls-5{fill:#0a0b0a;}</style></defs><path class="cls-1" d="M378.71,453.62c-16.39-3.9-31.36-11.07-45.48-20-3.25-2.06-5.08-1.26-7.33,1.11-4.09,4.34-8.38,8.48-12.5,12.79-1.93,2-3.7,2-5.57.08-6.69-6.79-13.35-13.61-20.06-20.39-5.36-5.43-10.69-10.88-16.18-16.18-2.46-2.38-3-4,0-6.66,4.53-4.06,8.33-8.93,12.83-13,2.54-2.32,1.91-4,.39-6.28a141.67,141.67,0,0,1-18-37.86,161.25,161.25,0,0,1-4.75-18.49c-.44-2.39-2.2-1.6-3.5-1.62-6.48-.08-13-.14-19.46,0-2.89.07-4.08-.61-4.06-3.83q.22-25.65,0-51.32c0-3.25,1.17-3.88,4-3.8,6.48.17,13,0,19.46.11,2.37,0,3.11-.51,3.67-3.15,4.16-19.82,11.21-38.51,22.8-55.31,1.39-2,1.69-3.76-.62-5.87-4.51-4.11-8.32-9-12.86-13-3-2.65-2.4-4.26,0-6.65,9.72-9.56,19.31-19.25,29-28.88.58-.59,1.24-1.11,1.82-1.7,8.37-8.51,8.31-8.46,16.48-.1,3.27,3.35,6.38,8.09,10.37,9.15,4.27,1.14,8.14-3.85,12.19-6.15,13.13-7.45,27.32-12.23,41.63-16.73a9.82,9.82,0,0,1,3-.17c3.4,0,5-1.22,4.91-5-.26-7.63-.07-15.27-.07-22.91h59.89c0,7.64.18,15.29,0,22.92-.1,3.38,1.13,4.57,4.39,5,10.39,1.56,20.11,5.38,29.72,9.46a170.57,170.57,0,0,1,25.54,13.65c2.64,1.71,3.9-1,5.18-2.21,4.25-4,8.18-8.26,12.2-12.46,2.08-2.16,4.22-2.57,6.35-.21,6.1,6.78,12.74,13,19.29,19.36,6,5.76,11.49,12,17.41,17.76,2.14,2.1,1.59,3.58-.12,5.33-4.4,4.47-8.57,9.2-13.25,13.36-2.5,2.22-2.3,3.95-.74,6.23,11.49,16.87,18.69,35.52,22.72,55.41.5,2.47,1.31,2.89,3.42,2.87,6.66-.08,13.31.07,20-.08,2.75-.06,3.77.73,3.75,3.63q-.16,25.92,0,51.83c0,3.1-1.32,3.51-3.89,3.45-6.15-.13-12.31.07-18.46-.08-3-.08-4.16.31-4.9,4a143.26,143.26,0,0,1-13.92,39.49c-2.78,5.2-5.05,10.71-9,15.28-1.39,1.62-1.44,3.54.72,5.48,4.4,4,8.11,8.75,12.59,12.61,3.54,3.05,2.74,5.36.07,8-8.16,8.13-16.35,16.21-24.51,24.34-3.44,3.42-6.88,6.85-10.21,10.37-2.71,2.85-5.15,3-7.9,0-3.78-4.17-7.62-8.29-11.68-12.2-1.73-1.66-3.31-3.07-6.6-1a181.13,181.13,0,0,1-24.62,13.15c-6.84,2.95-13.89,5.75-21.34,7.1-.06-7.29-.05-14.58-.22-21.87,0-2,.7-2.59,2.44-3.44,5.58-2.73,11.52-4.48,17.12-7.27,10.52-5.26,19.93-11.92,29-19.17,3.18-2.53,3-4.55.32-7.16a57.51,57.51,0,0,1-4.12-4.93l5.4-6c2.4,2,4.82,4,7.21,6.05,1.32,1.12,2.27,1.52,3.62-.25,4.46-5.87,9.79-11.19,13.6-17.44,8-13.2,14.38-27.28,17.79-42.46,1.47-6.54,3-13.17,3.38-19.82,1.14-20-.74-39.71-7.8-58.73a141.46,141.46,0,0,0-14.77-29.55,144.1,144.1,0,0,0-23.56-27,132,132,0,0,0-35.81-23,140.53,140.53,0,0,0-38.27-10.42C422.37,159,407,160.23,391.49,163c-12.5,2.23-24.14,6.92-35.25,12.73a133.63,133.63,0,0,0-30.57,22.16,141.2,141.2,0,0,0-21.79,26.65,131.48,131.48,0,0,0-17.05,40.34c-1.53,6.53-3.31,13.14-3.7,19.79-1.17,20.36.46,40.47,7.88,59.75a143.54,143.54,0,0,0,18,33.83,157.35,157.35,0,0,0,21.53,23.62,115.65,115.65,0,0,0,18.85,13.79,146.8,146.8,0,0,0,27,12.54c1.81.61,2.53,1.49,2.48,3.5C378.74,439,378.77,446.31,378.71,453.62ZM310.59,196.25c2.11-2.18,4-4.11,5.86-6.07,1.58-1.67,2.94-3.36-.05-5a10.24,10.24,0,0,1-3.2-3.38c-2.3-3.37-3.77-2.31-6-.09-5.84,5.85-5.94,5.91.78,11.68A10.46,10.46,0,0,1,310.59,196.25Zm228.54-8.74c.13-1.13-7.27-8.37-7.86-7.88a84.14,84.14,0,0,0-7.57,7.3c-.58.64,6.81,9.49,7.34,9C533.89,193.18,536.55,190.23,539.13,187.51ZM310.66,399.11a27,27,0,0,1-2.79,2.78c-6.44,5.57-6.36,6.78.18,12.4.13.11.24.23.37.33,1.36,1.17,2.13,1.63,3.85-.23,6.21-6.73,6.37-6.57-.17-13.27A16.69,16.69,0,0,1,310.66,399.11ZM531,398.92c-2.09,2.19-4,4.14-5.83,6.11-1.58,1.68-3,3.36.06,5a10.37,10.37,0,0,1,3.2,3.39c2.12,3.09,3.5,2.47,5.62.23,6.73-7.08,6.51-4.13-.37-11.81A14.06,14.06,0,0,1,531,398.92ZM420.45,147.35c5.18,1.55,6.56-.49,6.6-5.81,0-5.14-1.52-6-6.31-6.17-5.75-.25-6.17,2.11-6.14,6.79C414.63,146.63,415.55,148.8,420.45,147.35ZM264.57,302.92c4.27.82,6.73.23,6.54-5.24-.16-4.54-1.27-5.88-5.81-5.7-4.07.15-6.77,0-6.39,5.56C259.21,301.78,259.63,304.37,264.57,302.92Zm312.26-10.61c-4.54-1.09-6.36.21-6.36,5.34,0,4.85,1.7,5.57,5.95,5.59s6.52-.38,6.27-5.69C582.48,293,581.59,290.94,576.83,292.31Z" transform="translate(-235.05 -111.7)"/><path class="cls-2" d="M378.71,453.62c.06-7.31,0-14.62.23-21.92.05-2-.67-2.89-2.48-3.5a146.8,146.8,0,0,1-27-12.54,115.65,115.65,0,0,1-18.85-13.79,157.35,157.35,0,0,1-21.53-23.62,143.54,143.54,0,0,1-18-33.83c-7.42-19.28-9.05-39.39-7.88-59.75.39-6.65,2.17-13.26,3.7-19.79a131.48,131.48,0,0,1,17.05-40.34,141.2,141.2,0,0,1,21.79-26.65,133.63,133.63,0,0,1,30.57-22.16c11.11-5.81,22.75-10.5,35.25-12.73,15.51-2.77,30.88-4,46.77-1.89a140.53,140.53,0,0,1,38.27,10.42,132,132,0,0,1,35.81,23,144.1,144.1,0,0,1,23.56,27,141.46,141.46,0,0,1,14.77,29.55c7.06,19,8.94,38.7,7.8,58.73-.37,6.65-1.91,13.28-3.38,19.82-3.41,15.18-9.75,29.26-17.79,42.46-3.81,6.25-9.14,11.57-13.6,17.44-1.35,1.77-2.3,1.37-3.62.25-2.39-2-4.81-4-7.21-6.05,9.07-10.84,17.46-22,23-35.24,5.86-13.84,9.9-28,10.57-43a176.06,176.06,0,0,0-.81-24.28c-1.1-11.67-4.65-22.62-9-33.24a119,119,0,0,0-25.79-38.27,129.19,129.19,0,0,0-29.68-22.54c-12.11-6.69-25-10.88-38.46-13.59a104.52,104.52,0,0,0-37-1.15,195.2,195.2,0,0,0-23.5,5.14,104.51,104.51,0,0,0-24.36,10.76,132.24,132.24,0,0,0-37,32.41,111.89,111.89,0,0,0-16.62,28.73c-4.25,11-7.62,22.4-8.7,34.45a138.7,138.7,0,0,0,1.05,35.58,121.23,121.23,0,0,0,9.82,30.56,128.39,128.39,0,0,0,27.38,38.33C345.63,400,359.53,408.35,374.6,415c3.2,1.4,4.36,1,4.32-2.75-.13-13.78-.05-27.57,0-41.36,0-1.3-.18-2.78.34-3.88,2.92-6.14,6-12.2,9.08-18.27,5.82-11.52,11.78-23,17.44-34.56,2.66-5.46,10.06-11.43,15.27-10.69,6.61.93,11.73,4.24,14.82,10.66,6.51,13.52,13.28,26.92,20.17,40.25,4.16,8,7.65,15.88,6.9,25.47-.86,10.9-.16,21.91-.25,32.87,0,2.17.36,4.05,2.84,2.86,7.77-3.71,15.91-6.75,23-11.79,6.39-4.58,12.66-9.33,19-14a57.51,57.51,0,0,0,4.12,4.93c2.72,2.61,2.86,4.63-.32,7.16-9.12,7.25-18.53,13.91-29,19.17-5.6,2.79-11.54,4.54-17.12,7.27-1.74.85-2.48,1.48-2.44,3.44.17,7.29.16,14.58.22,21.87-.06,8.8-.22,17.59-.09,26.38,0,2.81-.75,3.6-3.58,3.59q-38.4-.16-76.81,0c-2.81,0-3.62-.75-3.58-3.58C379,471.21,378.77,462.41,378.71,453.62Zm72.21-30.3h0c0-11.29,0-22.57,0-33.86,0-4.64,1.7-10.77-.6-13.53-2.68-3.19-9-.91-13.78-1-9.36-.2-9.43-.07-9.62,9.46-.05,2.31-.22,3.49-3.13,3.53-8.88.14-8.88.3-8.94-8.63a10.59,10.59,0,0,1,0-1.49c.4-2.53-.87-3-3.13-3q-9,.19-17.94,0c-2.37-.05-3.1.67-3.1,3.08q.12,45.3,0,90.62c0,2.43.72,3.11,3.08,3,5.32-.15,10.66-.32,16,0,4,.28,5.28-.67,5.23-5-.27-21.07-.13-42.15-.1-63.23,0-1.25-.62-3.44.52-3.62,3.49-.57,7.21-1.06,10.59-.39,2,.4.89,3.54.89,5.41.07,20.91.12,41.83,0,62.74,0,3.26.83,4.24,4.09,4.07a134.72,134.72,0,0,1,16,0c3.7.24,4.25-1.16,4.2-4.46C450.81,452.53,450.92,437.93,450.92,423.32ZM394.74,363.6h52.11c-3.33-7.78-7.23-14.82-10.84-22-1-2-2.2-1.58-3.51-1.59q-11.72-.08-23.44,0c-1.33,0-2.49-.35-3.49,1.63C402,348.8,398.06,355.84,394.74,363.6Zm18.77-36.4c4.31,0,8.27.05,12.23,0,.78,0,2,.66,2.3-.91.2-1.1-4.25-9.89-5.34-10-1.9-.21-4.63-1-5.29,1.29C416.47,320.85,413.34,323.16,413.51,327.2Z" transform="translate(-235.05 -111.7)"/><path class="cls-3" d="M310.59,196.25a10.46,10.46,0,0,0-2.6-2.87c-6.72-5.77-6.62-5.83-.78-11.68,2.22-2.22,3.69-3.28,6,.09a10.24,10.24,0,0,0,3.2,3.38c3,1.65,1.63,3.34.05,5C314.59,192.14,312.7,194.07,310.59,196.25Z" transform="translate(-235.05 -111.7)"/><path class="cls-3" d="M539.13,187.51c-2.58,2.72-5.24,5.67-8.09,8.4-.53.51-7.92-8.34-7.34-9a84.14,84.14,0,0,1,7.57-7.3C531.86,179.14,539.26,186.38,539.13,187.51Z" transform="translate(-235.05 -111.7)"/><path class="cls-3" d="M310.66,399.11a16.69,16.69,0,0,0,1.44,2c6.54,6.7,6.38,6.54.17,13.27-1.72,1.86-2.49,1.4-3.85.23-.13-.1-.24-.22-.37-.33-6.54-5.62-6.62-6.83-.18-12.4A27,27,0,0,0,310.66,399.11Z" transform="translate(-235.05 -111.7)"/><path class="cls-3" d="M531,398.92a14.06,14.06,0,0,0,2.68,2.94c6.88,7.68,7.1,4.73.37,11.81-2.12,2.24-3.5,2.86-5.62-.23a10.37,10.37,0,0,0-3.2-3.39c-3-1.66-1.64-3.34-.06-5C527,403.06,528.88,401.11,531,398.92Z" transform="translate(-235.05 -111.7)"/><path class="cls-3" d="M420.45,147.35c-4.9,1.45-5.82-.72-5.85-5.19,0-4.68.39-7,6.14-6.79,4.79.21,6.35,1,6.31,6.17C427,146.86,425.63,148.9,420.45,147.35Z" transform="translate(-235.05 -111.7)"/><path class="cls-3" d="M264.57,302.92c-4.94,1.45-5.36-1.14-5.66-5.38-.38-5.53,2.32-5.41,6.39-5.56,4.54-.18,5.65,1.16,5.81,5.7C271.3,303.15,268.84,303.74,264.57,302.92Z" transform="translate(-235.05 -111.7)"/><path class="cls-3" d="M576.83,292.31c4.76-1.37,5.65.72,5.86,5.24.25,5.31-2,5.7-6.27,5.69s-5.95-.74-5.95-5.59C570.47,292.52,572.29,291.22,576.83,292.31Z" transform="translate(-235.05 -111.7)"/><path class="cls-3" d="M450.92,423.32c0,14.61-.11,29.21.07,43.82.05,3.3-.5,4.7-4.2,4.46a134.72,134.72,0,0,0-16,0c-3.26.17-4.12-.81-4.09-4.07.16-20.91.11-41.83,0-62.74,0-1.87,1.1-5-.89-5.41-3.38-.67-7.1-.18-10.59.39-1.14.18-.51,2.37-.52,3.62,0,21.08-.17,42.16.1,63.23.05,4.32-1.23,5.27-5.23,5-5.29-.36-10.63-.19-16,0-2.36.07-3.08-.61-3.08-3q.14-45.31,0-90.62c0-2.41.73-3.13,3.1-3.08q9,.21,17.94,0c2.26-.05,3.53.44,3.13,3a10.59,10.59,0,0,0,0,1.49c.06,8.93.06,8.77,8.94,8.63,2.91,0,3.08-1.22,3.13-3.53.19-9.53.26-9.66,9.62-9.46,4.74.1,11.1-2.18,13.78,1,2.3,2.76.6,8.89.6,13.53,0,11.29,0,22.57,0,33.86Z" transform="translate(-235.05 -111.7)"/><path class="cls-3" d="M394.74,363.6c3.32-7.76,7.21-14.8,10.83-22,1-2,2.16-1.62,3.49-1.63q11.71-.06,23.44,0c1.31,0,2.5-.42,3.51,1.59,3.61,7.19,7.51,14.23,10.84,22Z" transform="translate(-235.05 -111.7)"/><path class="cls-3" d="M413.51,327.2c-.17-4,3-6.35,3.9-9.67.66-2.29,3.39-1.5,5.29-1.29,1.09.13,5.54,8.92,5.34,10-.29,1.57-1.52.89-2.3.91C421.78,327.25,417.82,327.2,413.51,327.2Z" transform="translate(-235.05 -111.7)"/><path class="cls-2" d="M368.39,280.58c2.49-14.19,3.55-28.14,5-42,1.14-11.14,3.58-22.16,3.6-33.46,0-6.55,2.37-13,1.93-19.67-.22-3.21,2.5-2,4-2,17.3-.09,34.59-.05,51.89-.05,6.32,0,12.64.09,19-.05,2.38-.06,3,.68,3.12,3.07.34,9.14.44,9.18-8.37,9.26-18.7.15-37.4.34-56.09.23-2.2,0-2.32.41-2.53,2.19-1.58,13.24-4.2,26.43-4.65,39.7-.4,11.44-3.3,22.49-3.5,33.93-.17,9.5-3.34,18.83-2.92,28.49.09,2-.94,3.09-3.09,2.83a4,4,0,0,0-.49,0c-13.47.69-14.54-.5-17.44-14.69-1.62-7.93-4.36-15.63-6.52-23.46-.78-2.85-2.4-3.82-5.39-3.68-5.79.29-11.61,0-17.4.27-2.86.12-3.58-.84-3.59-3.62-.06-8.69-.18-8.69,8.42-8.69,7.32,0,14.65.27,22-.1,4.15-.21,4.95,2.16,5.7,5.18,1.8,7.22,3.62,14.43,5.52,21.62A37.61,37.61,0,0,0,368.39,280.58Z" transform="translate(-235.05 -111.7)"/><path class="cls-2" d="M423.53,292c-7.79,0-15.59-.09-23.38.06-2.5.05-3.8-.5-3.35-3.21a1.2,1.2,0,0,0,0-.5c-3.23-12.08,6.45-16.77,13.34-22.91,8.1-7.21,16.62-13.95,24.67-21.21,4.13-3.72,4.89-10.44,2.53-16.27-2-5-5.92-7.44-11.53-7.64-11.44-.41-16.95,4.62-16.95,16a2.78,2.78,0,0,1,0,.5c-.4,2.37,1.33,6-1,6.88-2.9,1.13-6.53.39-9.85.38-1.09,0-1.19-1-1.19-1.79,0-8.66-.19-17.22,6-24.52,6.85-8.07,15.33-10.86,25.56-9.4,14.79,2.12,22.54,14.82,22.28,26.33-.19,8.32-3.95,15.27-10.47,20.69-8.3,6.89-16.46,13.92-24.69,20.89-.72.61-1.87,1-1.47,2.21s1.68.76,2.56.76c10.1,0,20.19.17,30.28-.05,3-.06,4,.5,4,3.7,0,9.12.14,9.12-8.95,9.1H423.53Z" transform="translate(-235.05 -111.7)"/><path class="cls-4" d="M473.59,277.51c.09.1.16.08.22,0q11.42,0,22.82,0c.77,0,1.4.15,1.39-1.1s-.61-1.06-1.34-1.06h-18c-2.34,0-4.68-.08-7,0-2.57.12-3,.94-3,2.94.06,9.64,0,19.28,0,28.92a1.92,1.92,0,0,1-.37,1.45c-1.69,1.95-3.28,4-4.94,5.95a1.93,1.93,0,0,0-.29,2.24,3.33,3.33,0,0,0,3.27,2.07q20.76,0,41.53,0h15.57c2,0,3.83-2.2,3-3.72a20.67,20.67,0,0,0-3.18-3.88c-1.26-1.35-2.74-2.5-2.51-4.8s.05-4.81.05-7.22,0-2.38-2.42-2.4c-.81,0-1,.25-1,1a43.8,43.8,0,0,1-.12,6.48,1.81,1.81,0,0,1-2.08,1.78H474.47a2.11,2.11,0,0,1-2.33-2.29q0-12.07,0-24.14A2,2,0,0,1,473.59,277.51ZM526,265.18c-1.85,0-3.7,0-5.55,0-.57,0-.74.15-.74.75q0,5.5,0,11c0,.58.15.75.74.75,3.7,0,7.39,0,11.09,0,.58,0,.75-.15.75-.75q0-5.51,0-11c0-.59-.15-.77-.74-.76C529.69,265.21,527.84,265.18,526,265.18ZM515.85,289.1c0,1.47,0,2.94,0,4.41,0,.53.07.81.71.8,2.94,0,5.87,0,8.81,0,.64,0,.83-.23.83-.86q0-4.29,0-8.58c0-.64-.18-.83-.81-.82q-4.41,0-8.81,0c-.6,0-.75.18-.73.76C515.87,286.24,515.85,287.67,515.85,289.1Zm-2.07-15c-1.16,0-2.33,0-3.49,0-.58,0-.75.14-.74.74,0,2.24,0,4.48,0,6.72,0,.72.23.86.88.85,2.25,0,4.5,0,6.75,0,.69,0,.86-.21.85-.89,0-2.12-.07-4.24,0-6.36,0-.95-.26-1.15-1.13-1.07C515.87,274.13,514.82,274.06,513.78,274.06Zm-2.72,22.18v.07h.36c2.68,0,2.7,0,2.67-2.69,0-1,.46-2.47-.22-3s-2-.17-3-.17c-2.79,0-2.81,0-2.78,2.81,0,1-.45,2.33.21,2.9S510.1,296.24,511.06,296.24Zm-7.77-19.72c-2.92-.06-2.92-.06-2.9,2.89,0,.93-.32,2.16.15,2.71s1.8.2,2.75.2,2.2.45,2.75-.2.16-1.79.13-2.72.44-2.24-.2-2.79S504.21,276.52,503.29,276.52Zm-.41,10.13c0,1-.38,2.28.09,2.83s1.88.19,2.87.2c2.75,0,2.76,0,2.75-2.83,0-1,.32-2.26-.16-2.82s-1.88-.19-2.87-.2C502.81,283.79,502.81,283.81,502.88,286.65Zm11.18-14.94v.08h.49c2.45,0,2.47,0,2.44-2.54,0-1,.43-2.31-.17-2.95s-1.9-.18-2.89-.2c-2.74,0-2.76,0-2.73,2.74,0,1-.43,2.23.2,2.78S513.15,271.71,514.06,271.71Zm-17.77,19.21c2.64,0,2.64,0,2.64-2.22,0-2.68,0-2.68-2.66-2.68-2.41,0-2.41,0-2.4,2.46S493.87,290.92,496.29,290.92Zm2.65,3.67c0,2.45,0,2.45,2.41,2.45s2.43,0,2.42-2.5,0-2.39-2.42-2.39S498.94,292.15,498.94,294.59Zm-5.58,3c2.38,0,2.38,0,2.38-2.38,0-2.53,0-2.53-2.48-2.52s-2.36,0-2.36,2.38S490.9,297.54,493.36,297.54Z" transform="translate(-235.05 -111.7)"/><path class="cls-2" d="M473.59,277.51a2,2,0,0,0-1.45,2.19q0,12.07,0,24.14a2.11,2.11,0,0,0,2.33,2.29h40.78a1.81,1.81,0,0,0,2.08-1.78,43.8,43.8,0,0,0,.12-6.48c0-.78.18-1,1-1,2.42,0,2.42,0,2.42,2.4s.18,4.83-.05,7.22,1.25,3.45,2.51,4.8a20.67,20.67,0,0,1,3.18,3.88c.84,1.52-1,3.71-3,3.72H507.94q-20.78,0-41.53,0a3.33,3.33,0,0,1-3.27-2.07,1.93,1.93,0,0,1,.29-2.24c1.66-2,3.25-4,4.94-5.95a1.92,1.92,0,0,0,.37-1.45c0-9.64,0-19.28,0-28.92,0-2,.39-2.82,3-2.94,2.33-.1,4.67,0,7,0h18c.73,0,1.33-.15,1.34,1.06s-.62,1.1-1.39,1.1q-11.42,0-22.82,0Zm11.64,37.91h19.12c-.64-1.62-1.44-2.19-3-2.19-3.94,0-7.89.11-11.82-.05-1.87-.07-3.31.23-4.2,2C485.28,315.23,485.27,315.26,485.23,315.42Zm9.48,1.24c-1.44,0-2.88,0-4.32,0-.32,0-.87-.29-.87.44s.48.53.85.53h8.89c.4,0,.9.05.86-.54s-.48-.44-.85-.44Z" transform="translate(-235.05 -111.7)"/><path class="cls-2" d="M526,265.18c1.85,0,3.7,0,5.55,0,.59,0,.74.17.74.76q0,5.51,0,11c0,.6-.17.75-.75.75-3.7,0-7.39,0-11.09,0-.59,0-.74-.17-.74-.75q0-5.52,0-11c0-.6.17-.76.74-.75C522.29,265.21,524.14,265.18,526,265.18Z" transform="translate(-235.05 -111.7)"/><path class="cls-2" d="M515.85,289.1c0-1.43,0-2.86,0-4.29,0-.58.13-.77.73-.76q4.39,0,8.81,0c.63,0,.82.18.81.82q0,4.29,0,8.58c0,.63-.19.86-.83.86-2.94,0-5.87,0-8.81,0-.64,0-.72-.27-.71-.8C515.86,292,515.85,290.57,515.85,289.1Z" transform="translate(-235.05 -111.7)"/><path class="cls-2" d="M513.78,274.06c1,0,2.09.07,3.13,0,.87-.08,1.17.12,1.13,1.07-.08,2.12,0,4.24,0,6.36,0,.68-.16.9-.85.89-2.25-.05-4.5,0-6.75,0-.65,0-.9-.13-.88-.85,0-2.24,0-4.48,0-6.72,0-.6.16-.76.74-.74C511.45,274.09,512.62,274.06,513.78,274.06Z" transform="translate(-235.05 -111.7)"/><path class="cls-2" d="M511.06,296.24c-1,0-2.23.38-2.79-.1s-.2-1.9-.21-2.9c0-2.81,0-2.82,2.78-2.81,1,0,2.38-.35,3,.17s.21,2,.22,3c0,2.68,0,2.68-2.67,2.69h-.36Z" transform="translate(-235.05 -111.7)"/><path class="cls-2" d="M503.29,276.52c.92,0,2.14-.37,2.68.09s.17,1.83.2,2.79.33,2.17-.13,2.72-1.81.2-2.75.2-2.21.45-2.75-.2-.15-1.78-.15-2.71C500.37,276.46,500.37,276.46,503.29,276.52Z" transform="translate(-235.05 -111.7)"/><path class="cls-2" d="M502.88,286.65c-.07-2.84-.07-2.86,2.68-2.82,1,0,2.3-.47,2.87.2s.16,1.85.16,2.82c0,2.84,0,2.86-2.75,2.83-1,0-2.3.46-2.87-.2S502.88,287.62,502.88,286.65Z" transform="translate(-235.05 -111.7)"/><path class="cls-2" d="M514.06,271.71c-.91,0-2.14.37-2.66-.09s-.19-1.83-.2-2.78c0-2.75,0-2.77,2.73-2.74,1,0,2.28-.44,2.89.2s.16,1.94.17,2.95c0,2.54,0,2.54-2.44,2.54h-.49Z" transform="translate(-235.05 -111.7)"/><path class="cls-2" d="M496.29,290.92c-2.42,0-2.42,0-2.42-2.44s0-2.46,2.4-2.46c2.66,0,2.66,0,2.66,2.68C498.93,290.92,498.93,290.92,496.29,290.92Z" transform="translate(-235.05 -111.7)"/><path class="cls-2" d="M498.94,294.59c0-2.44,0-2.44,2.41-2.44s2.4,0,2.42,2.39,0,2.5-2.42,2.5S498.94,297,498.94,294.59Z" transform="translate(-235.05 -111.7)"/><path class="cls-2" d="M493.36,297.54c-2.46,0-2.46,0-2.46-2.52s0-2.38,2.36-2.38,2.48,0,2.48,2.52C495.74,297.54,495.74,297.54,493.36,297.54Z" transform="translate(-235.05 -111.7)"/><path class="cls-5" d="M473.59,277.51l.22,0C473.75,277.59,473.68,277.61,473.59,277.51Z" transform="translate(-235.05 -111.7)"/><path class="cls-1" d="M485.23,315.42c0-.16,0-.19.06-.22.89-1.79,2.33-2.09,4.2-2,3.93.16,7.88.05,11.82.05,1.6,0,2.4.57,3,2.19Z" transform="translate(-235.05 -111.7)"/><path class="cls-1" d="M494.71,316.66h4.56c.37,0,.82-.05.85.44s-.46.54-.86.54h-8.89c-.37,0-.85.13-.85-.53s.55-.43.87-.44C491.83,316.64,493.27,316.66,494.71,316.66Z" transform="translate(-235.05 -111.7)"/></svg>