<svg id="Capa_1" data-name="Capa 1" xmlns="http://www.w3.org/2000/svg" viewBox="0 0 245.07 205.95"><defs><style>.cls-1{fill:#aac816;}.cls-2{fill:#8e3089;stroke:#8f3189;}.cls-2,.cls-3,.cls-4,.cls-5{stroke-miterlimit:10;}.cls-3{fill:#e94d30;stroke:#e5605e;stroke-width:0.5px;}.cls-4{fill:#ffd940;stroke:#ffd940;}.cls-5{fill:#2a90cf;stroke:#2a90cf;}.cls-6{fill:#e52621;}.cls-7{fill:none;}.cls-8{fill:#0c0c0c;}.cls-9{fill:#098395;}.cls-10{fill:#27bad7;}</style></defs><rect class="cls-1" x="263.13" y="317.47" width="3.09" height="19.1" transform="translate(-146.28 -219.06) rotate(-0.15)"/><path class="cls-1" d="M273.64,322.94c0-3-3.12-5.48-6.95-5.47l0,11C270.55,328.44,273.65,326,273.64,322.94Z" transform="translate(-145.42 -219.76)"/><polygon class="cls-1" points="126.08 107.85 123.63 109.13 127.71 116.79 130.16 115.5 126.08 107.85"/><polygon class="cls-2" points="174.8 103.57 170.29 97.19 168.66 114.88 170.74 115.71 171.44 103.19 174.84 107.31 177.95 103.61 179.34 115.74 182.02 114.71 179.03 96.64 174.8 103.57"/><path class="cls-3" d="M256.14,310.23,255.8,334l-8.31-22.48-8.94,25.09,3.57,1.44,2-7.46,6.53-.15,2.51,7.2,6.21,0,.38-24.74,83.9-.46V310Zm-11.5,16.39,3-7.35,3.05,7.33Z" transform="translate(-145.42 -219.76)"/><polygon class="cls-4" points="150.71 97.98 136.04 98.02 136.05 101.34 141.82 101.39 142.04 116.39 144.99 116.38 144.83 101.28 150.6 101.18 150.71 97.98"/><path class="cls-5" d="M312.46,317.17,298.67,317l0,3.72,3.58.06a34.43,34.43,0,0,1-2.44,8.72,30.83,30.83,0,0,1-3,5.36l3,.49a33.87,33.87,0,0,0,2.44-5.66A36.28,36.28,0,0,0,304,321l2.11-.18a54.45,54.45,0,0,0,2.5,13.07c.31.93.38,1.16.71,2,1.57-.18,3.69-.33,3.69-.33s-.13-.25-.19-.31c-.51-.43-.94-1.44-1.81-3.45a39.07,39.07,0,0,1-2.23-11.22l3.76-.43Z" transform="translate(-145.42 -219.76)"/><path class="cls-6" d="M278,329.42a15.39,15.39,0,0,1,.4-8c-.87.12-1.46-.09-2.33,0-.75,2.82-1.67,8.18,1,13.12a13.49,13.49,0,0,0,1,1.61l2.61-.35A16,16,0,0,1,278,329.42Z" transform="translate(-145.42 -219.76)"/><ellipse class="cls-6" cx="277.62" cy="318.57" rx="1.73" ry="1.69" transform="translate(-147.55 -217.89) rotate(-0.39)"/><path class="cls-7" d="M338.49,324.35c-.28-3.32-1.92-5.87-3.89-5.87s-3.6,2.56-3.87,5.89Z" transform="translate(-145.42 -219.76)"/><path class="cls-7" d="M330.79,326.93c.41,3.06,2,5.33,3.84,5.33s3.42-2.29,3.81-5.35Z" transform="translate(-145.42 -219.76)"/><path class="cls-8" d="M334.33,315.26c-3.47,0-6.27,4.54-6.25,10.13s2.83,10.1,6.3,10.09,6.27-4.54,6.26-10.13S337.8,315.25,334.33,315.26Zm.27,3.22c2,0,3.61,2.55,3.89,5.87l-7.76,0C331,321,332.62,318.49,334.6,318.48Zm0,13.78c-1.87,0-3.43-2.27-3.84-5.33l7.65,0C338.05,330,336.5,332.25,334.63,332.26Z" transform="translate(-145.42 -219.76)"/><path class="cls-9" d="M145.42,281.17c23-20.35,45.11-40,67.24-59.59a5.39,5.39,0,0,1,3.9-1.81c26.78.52,53.55,1,81.27,2.67-3.82,3.5-7.68,6.95-11.44,10.52q-27,25.65-54,51.4a6.42,6.42,0,0,1-5.33,1.84c-19.25-1.21-38.52-2.24-57.76-3.58-3.63-.25-5,.26-4.78,4.26.36,7.14.07,14.32.12,21.48,0,3.52-.59,6.93,2.83,9.9,2.33,2,1.36,5.39-1.11,7.47a5.28,5.28,0,0,1-7.3-.19c-2.36-2.13-3-5.27-.62-7.51,2.63-2.44,2.45-5.13,2.44-8.11q-.08-12,0-24c0-2.6-.67-3.89-3.62-3.87C153.7,282.11,150.08,281.56,145.42,281.17Z" transform="translate(-145.42 -219.76)"/><path class="cls-9" d="M338.66,425.71H238.52c3.27-5.46,6-10.12,13.4-9.18,5.41.7,11,0,16.47.19,2.87.09,3.6-1,3.69-3.75.37-11.89.45-11.89-11.4-11.89-16.49,0-33,0-49.46,0-15.74,0-24.41-8.65-24.44-24.34q0-27.9.06-55.8c0-1.45-1.19-4.58,1.56-4.08,2.6.47,7.15-.85,7.11,4.67-.13,18.64-.06,37.29,0,55.94,0,10.41,4.48,14.93,14.82,14.93q78.43,0,156.86,0c10.06,0,14.77-4.58,14.78-14.55.05-27.64,0-55.27,0-82.91,0-4.89-1-9.23-5-12.44-3.35-2.7-.66-6.26-1.86-9.33,7.72.05,15.51,10.64,15.38,19.47-.2,13-.05,26-.05,39q0,22.72,0,45.45c0,15.42-8.6,24-24.17,24-18.82,0-37.64.09-56.45-.06-3.38,0-4.55.71-4.52,4.33.1,11.33-.06,11.33,11.49,11.33,2.33,0,4.73.36,7-.07C331.32,415.19,335.51,419.1,338.66,425.71Z" transform="translate(-145.42 -219.76)"/><path class="cls-10" d="M289.42,338.66c1,10.33-.36,13.35.82,23.78.91,8.1,3.44,10.72,11.91,10.83,11,.14,22,.05,33,.06,7.83,0,15.66-.09,23.48.06,2.78.05,3.77-.79,3.76-3.67q-.12-50.94,0-101.89c0-2-.06-3.63-2.81-3.54-16.28.52-32.61-1.25-48.87.95-5.93.81-11.36,3.08-16.94,5.12,5.24-5.9,12.11-8.86,19.48-10.76a76.61,76.61,0,0,1,18.31-1.89c11.65-.11,23.31.09,35-.1,3.59-.06,4.93.84,4.92,4.71q-.21,57.45,0,114.88c0,3.79-1.23,4.8-4.88,4.8q-77.67-.13-155.35,0c-3.62,0-4.87-.93-4.82-4.76.2-17.65.05-35.3.14-52.95,0-1.82-1.23-5,2.61-4.48,2.9.36,6.63-.87,6.46,4.84-.43,14.64,0,29.3-.23,43.95-.05,3.69.92,4.83,4.71,4.79,18-.2,36-.08,53.95-.11a20.85,20.85,0,0,0,6.4-.75c4-1.26,6.46-3.31,6.8-8C288,353.52,287.51,349.82,289.42,338.66Z" transform="translate(-145.42 -219.76)"/><path class="cls-9" d="M276,245.11c3.16,5.93,5.78,11.5,9,16.69,2,3.16,1.68,5.57,0,8.64-19,35.24-53.32,50.6-92.34,41.51-4.84-1.12-7.8-3.07-9.51-7.92-2.14-6-5.19-11.76-8.23-18.47,10.05,1.08,19.33,2,28.61,3.08,9.07,1,18.14,2,27.18,3.31,2.5.35,3.62-.95,5-2.44q18.21-20.14,36.45-40.26C273.32,248,274.44,246.83,276,245.11Z" transform="translate(-145.42 -219.76)"/></svg>